<svg width="312" height="197" viewBox="0 0 312 197" fill="none" xmlns="http://www.w3.org/2000/svg">
<path d="M110.773 175C123.476 175 133.773 164.703 133.773 152C133.773 139.297 123.476 129 110.773 129C98.0709 129 87.7734 139.297 87.7734 152C87.7734 164.703 98.0709 175 110.773 175Z" stroke="#FFA629" stroke-width="2" stroke-linecap="round" stroke-linejoin="round"/>
<path d="M110.771 144.568L102.961 150.248L105.951 159.418H115.601L118.581 150.248L110.771 144.568Z" stroke="#FFA629" stroke-width="2" stroke-linecap="round" stroke-linejoin="round"/>
<path d="M110.773 144.58V136.34" stroke="#FFA629" stroke-width="2" stroke-linecap="round" stroke-linejoin="round"/>
<path d="M102.959 150.238L95.1289 147.698" stroke="#FFA629" stroke-width="2" stroke-linecap="round" stroke-linejoin="round"/>
<path d="M105.967 159.42L101.117 166.09" stroke="#FFA629" stroke-width="2" stroke-linecap="round" stroke-linejoin="round"/>
<path d="M115.582 159.42L120.422 166.09" stroke="#FFA629" stroke-width="2" stroke-linecap="round" stroke-linejoin="round"/>
<path d="M118.582 150.25L126.412 147.71" stroke="#FFA629" stroke-width="2" stroke-linecap="round" stroke-linejoin="round"/>
<path d="M110.773 136.34L118.583 130.36" stroke="#FFA629" stroke-width="2" stroke-linecap="round" stroke-linejoin="round"/>
<path d="M110.771 136.34L102.961 130.36" stroke="#FFA629" stroke-width="2" stroke-linecap="round" stroke-linejoin="round"/>
<path d="M95.1266 147.679L91.9766 138.749" stroke="#FFA629" stroke-width="2" stroke-linecap="round" stroke-linejoin="round"/>
<path d="M95.1213 147.679L87.7812 152.729" stroke="#FFA629" stroke-width="2" stroke-linecap="round" stroke-linejoin="round"/>
<path d="M101.106 166.092L92.7461 166.302" stroke="#FFA629" stroke-width="2" stroke-linecap="round" stroke-linejoin="round"/>
<path d="M101.117 166.092L103.407 173.802" stroke="#FFA629" stroke-width="2" stroke-linecap="round" stroke-linejoin="round"/>
<path d="M120.464 166.092L118.184 173.792" stroke="#FFA629" stroke-width="2" stroke-linecap="round" stroke-linejoin="round"/>
<path d="M120.449 166.092L128.799 166.302" stroke="#FFA629" stroke-width="2" stroke-linecap="round" stroke-linejoin="round"/>
<path d="M126.414 147.71L133.764 152.77" stroke="#FFA629" stroke-width="2" stroke-linecap="round" stroke-linejoin="round"/>
<path d="M126.414 147.709L129.574 138.749" stroke="#FFA629" stroke-width="2" stroke-linecap="round" stroke-linejoin="round"/>
<path d="M48.224 43.8962H71.904V47.9922H48.224V43.8962ZM48.736 67.0002H44V22.2002H74.72V26.2962H48.736V67.0002Z" fill="white"/>
<path d="M115.12 67.0002V22.2002H119.024L149.936 61.1122H147.888V22.2002H152.56V67.0002H148.656L117.808 28.0882H119.856V67.0002H115.12Z" fill="white"/>
<path d="M166.223 67.0002V22.2002H184.462C189.241 22.2002 193.423 23.1602 197.007 25.0802C200.633 26.9575 203.449 29.5815 205.454 32.9522C207.46 36.3229 208.463 40.2055 208.463 44.6002C208.463 48.9949 207.46 52.8775 205.454 56.2482C203.449 59.6189 200.633 62.2642 197.007 64.1842C193.423 66.0615 189.241 67.0002 184.462 67.0002H166.223ZM170.958 62.9042H184.206C188.174 62.9042 191.609 62.1362 194.51 60.6002C197.454 59.0215 199.737 56.8669 201.359 54.1362C202.98 51.3629 203.79 48.1842 203.79 44.6002C203.79 40.9735 202.98 37.7949 201.359 35.0642C199.737 32.3335 197.454 30.2002 194.51 28.6642C191.609 27.0855 188.174 26.2962 184.206 26.2962H170.958V62.9042Z" fill="white"/>
<path d="M44.1758 121V76.2002H48.0798L68.5598 111.144H66.5118L86.7998 76.2002H90.7038V121H86.1598V83.3042H87.2478L68.5598 115.304H66.3198L47.5038 83.3042H48.7198V121H44.1758Z" fill="white"/>
<path d="M115.029 121V104.36L116.117 107.304L97.1088 76.2002H102.165L118.869 103.528H116.181L132.885 76.2002H137.621L118.613 107.304L119.701 104.36V121H115.029Z" fill="white"/>
<path d="M67.5256 174.384C64.1549 174.384 61.0402 173.83 58.1816 172.72C55.3229 171.568 52.8482 169.968 50.7576 167.92C48.6669 165.872 47.0242 163.462 45.8296 160.688C44.6776 157.915 44.1016 154.886 44.1016 151.6C44.1016 148.315 44.6776 145.286 45.8296 142.512C47.0242 139.739 48.6669 137.328 50.7576 135.28C52.8909 133.232 55.3869 131.654 58.2456 130.544C61.1042 129.392 64.2189 128.816 67.5896 128.816C70.8322 128.816 73.8829 129.371 76.7416 130.48C79.6002 131.547 82.0109 133.168 83.9736 135.344L80.9656 138.352C79.1309 136.475 77.1042 135.131 74.8856 134.32C72.6669 133.467 70.2776 133.04 67.7176 133.04C65.0296 133.04 62.5336 133.51 60.2296 134.448C57.9256 135.344 55.9202 136.646 54.2136 138.352C52.5069 140.016 51.1629 141.979 50.1816 144.24C49.2429 146.459 48.7736 148.912 48.7736 151.6C48.7736 154.288 49.2429 156.763 50.1816 159.024C51.1629 161.243 52.5069 163.206 54.2136 164.912C55.9202 166.576 57.9256 167.878 60.2296 168.816C62.5336 169.712 65.0296 170.16 67.7176 170.16C70.2776 170.16 72.6669 169.734 74.8856 168.88C77.1042 168.027 79.1309 166.662 80.9656 164.784L83.9736 167.792C82.0109 169.968 79.6002 171.611 76.7416 172.72C73.8829 173.83 70.8109 174.384 67.5256 174.384Z" fill="white"/>
<path d="M133.312 174L153.792 129.2H158.464L178.944 174H173.952L155.136 131.952H157.056L138.24 174H133.312ZM141.376 162.032L142.784 158.192H168.832L170.24 162.032H141.376Z" fill="white"/>
<path d="M204.226 174.384C200.855 174.384 197.74 173.83 194.882 172.72C192.023 171.568 189.548 169.968 187.458 167.92C185.367 165.872 183.724 163.462 182.53 160.688C181.378 157.915 180.802 154.886 180.802 151.6C180.802 148.315 181.378 145.286 182.53 142.512C183.724 139.739 185.367 137.328 187.458 135.28C189.591 133.232 192.087 131.654 194.946 130.544C197.804 129.392 200.919 128.816 204.29 128.816C207.532 128.816 210.583 129.371 213.442 130.48C216.3 131.547 218.711 133.168 220.674 135.344L217.666 138.352C215.831 136.475 213.804 135.131 211.586 134.32C209.367 133.467 206.978 133.04 204.418 133.04C201.73 133.04 199.234 133.51 196.93 134.448C194.626 135.344 192.62 136.646 190.914 138.352C189.207 140.016 187.863 141.979 186.882 144.24C185.943 146.459 185.474 148.912 185.474 151.6C185.474 154.288 185.943 156.763 186.882 159.024C187.863 161.243 189.207 163.206 190.914 164.912C192.62 166.576 194.626 167.878 196.93 168.816C199.234 169.712 201.73 170.16 204.418 170.16C206.978 170.16 209.367 169.734 211.586 168.88C213.804 168.027 215.831 166.662 217.666 164.784L220.674 167.792C218.711 169.968 216.3 171.611 213.442 172.72C210.583 173.83 207.511 174.384 204.226 174.384Z" fill="white"/>
<path d="M262.578 129.2H267.25V174H262.578V129.2ZM234.546 174H229.81V129.2H234.546V174ZM263.026 153.328H234.034V149.168H263.026V153.328Z" fill="white"/>
<mask id="mask0_240_832" style="mask-type:luminance" maskUnits="userSpaceOnUse" x="86" y="22" width="23" height="43">
<path d="M86.6562 22H108.777V64.7346H86.6562V22Z" fill="white"/>
</mask>
<g mask="url(#mask0_240_832)">
<path d="M108.18 29.572L88.3421 22.2264C88.1913 22.0898 87.9792 22 87.7247 22C87.277 22 86.9141 22.2767 86.9141 22.6181V63.8313C86.9141 64.1763 87.277 64.4531 87.7247 64.4531C88.1772 64.4531 88.5401 64.1763 88.5401 63.8313V36.0624L108.1 30.7113C108.774 30.528 108.825 29.8092 108.18 29.572Z" fill="#FFA629"/>
</g>
<mask id="mask1_240_832" style="mask-type:luminance" maskUnits="userSpaceOnUse" x="72" y="60" width="31" height="8">
<path d="M72.7734 60.748H102.736V68.0002H72.7734V60.748Z" fill="white"/>
</mask>
<g mask="url(#mask1_240_832)">
<path d="M89.5752 60.9346V61.7216C96.5412 61.9264 101.556 63.2525 101.556 64.4529C101.556 65.7538 95.641 67.2129 87.7277 67.2129C79.8143 67.2129 73.9041 65.7538 73.9041 64.4529C73.9041 63.2525 78.9188 61.9264 85.8848 61.7216V60.9346C79.277 61.125 72.8672 62.3433 72.8672 64.4529C72.8672 66.7565 80.526 67.9999 87.7277 67.9999C94.934 67.9999 102.588 66.7565 102.588 64.4529C102.588 62.3433 96.183 61.125 89.5752 60.9346Z" fill="#FFA629"/>
</g>
</svg>
